<svg width="5" height="5" viewBox="0 0 5 5" fill="none" xmlns="http://www.w3.org/2000/svg">
<path fill-rule="evenodd" clip-rule="evenodd" d="M2.25231 0.400009C1.7211 0.400009 1.29084 0.845101 1.29084 1.39463C1.29084 1.94415 1.7211 2.38925 2.25231 2.38925C2.78351 2.38925 3.21377 1.94415 3.21377 1.39463C3.21377 0.845101 2.78351 0.400009 2.25231 0.400009ZM2.73306 1.3946C2.73306 1.12108 2.51673 0.89729 2.25233 0.89729C1.98793 0.89729 1.7716 1.12108 1.7716 1.3946C1.7716 1.66812 1.98793 1.89191 2.25233 1.89191C2.51673 1.89191 2.73306 1.66812 2.73306 1.3946ZM3.69453 3.88117C3.64646 3.70462 2.90132 3.38386 2.25233 3.38386C1.60575 3.38386 0.865422 3.70214 0.810137 3.88117H3.69453ZM0.329407 3.88114C0.329407 3.21972 1.61056 2.88652 2.25234 2.88652C2.89411 2.88652 4.17527 3.21972 4.17527 3.88114V4.37845H0.329407V3.88114Z" fill="#90A4AE"/>
</svg>
